<svg height="974" width="720" xmlns="http://www.w3.org/2000/svg">
<rect height="974" fill="#555" width="720"></rect>
<text fill="#7f7" font-family="Courier New" font-size="12" xml:space="preserve">
<tspan x="10" y="26">13 megabytes installed</tspan>
<tspan x="10" y="42"></tspan>
<tspan x="10" y="58">node_modules</tspan>
<tspan x="10" y="74">└─┬ webpack-isomorphic-tools@3.0.2 </tspan>
<tspan x="10" y="90">  ├─┬ babel-runtime@6.23.0 </tspan>
<tspan x="10" y="106">  │ ├── core-js@2.4.1 </tspan>
<tspan x="10" y="122">  │ └── regenerator-runtime@0.10.3 </tspan>
<tspan x="10" y="138">  ├── colors@1.1.2 </tspan>
<tspan x="10" y="154">  ├─┬ fs-extra@0.30.0 </tspan>
<tspan x="10" y="170">  │ ├── graceful-fs@4.1.11 </tspan>
<tspan x="10" y="186">  │ ├── jsonfile@2.4.0 </tspan>
<tspan x="10" y="202">  │ ├── klaw@1.3.1 </tspan>
<tspan x="10" y="218">  │ ├── path-is-absolute@1.0.1 </tspan>
<tspan x="10" y="234">  │ └─┬ rimraf@2.6.1 </tspan>
<tspan x="10" y="250">  │   └─┬ glob@7.1.1 </tspan>
<tspan x="10" y="266">  │     ├── fs.realpath@1.0.0 </tspan>
<tspan x="10" y="282">  │     ├─┬ inflight@1.0.6 </tspan>
<tspan x="10" y="298">  │     │ └── wrappy@1.0.2 </tspan>
<tspan x="10" y="314">  │     ├─┬ minimatch@3.0.3 </tspan>
<tspan x="10" y="330">  │     │ └─┬ brace-expansion@1.1.7 </tspan>
<tspan x="10" y="346">  │     │   ├── balanced-match@0.4.2 </tspan>
<tspan x="10" y="362">  │     │   └── concat-map@0.0.1 </tspan>
<tspan x="10" y="378">  │     └── once@1.4.0 </tspan>
<tspan x="10" y="394">  ├── require-hacker@3.0.0 </tspan>
<tspan x="10" y="410">  ├─┬ sync-request@3.0.1 </tspan>
<tspan x="10" y="426">  │ ├─┬ concat-stream@1.6.0 </tspan>
<tspan x="10" y="442">  │ │ ├── inherits@2.0.3 </tspan>
<tspan x="10" y="458">  │ │ ├─┬ readable-stream@2.2.9 </tspan>
<tspan x="10" y="474">  │ │ │ ├── buffer-shims@1.0.0 </tspan>
<tspan x="10" y="490">  │ │ │ ├── core-util-is@1.0.2 </tspan>
<tspan x="10" y="506">  │ │ │ ├── isarray@1.0.0 </tspan>
<tspan x="10" y="522">  │ │ │ ├── process-nextick-args@1.0.7 </tspan>
<tspan x="10" y="538">  │ │ │ ├── string_decoder@1.0.0 </tspan>
<tspan x="10" y="554">  │ │ │ └── util-deprecate@1.0.2 </tspan>
<tspan x="10" y="570">  │ │ └── typedarray@0.0.6 </tspan>
<tspan x="10" y="586">  │ ├── http-response-object@1.1.0 </tspan>
<tspan x="10" y="602">  │ └─┬ then-request@2.2.0 </tspan>
<tspan x="10" y="618">  │   ├── caseless@0.11.0 </tspan>
<tspan x="10" y="634">  │   ├── http-basic@2.5.1 </tspan>
<tspan x="10" y="650">  │   ├─┬ promise@7.1.1 </tspan>
<tspan x="10" y="666">  │   │ └── asap@2.0.5 </tspan>
<tspan x="10" y="682">  │   └── qs@6.4.0 </tspan>
<tspan x="10" y="698">  └─┬ uglify-js@2.8.22 </tspan>
<tspan x="10" y="714">    ├── source-map@0.5.6 </tspan>
<tspan x="10" y="730">    ├── uglify-to-browserify@1.0.2 </tspan>
<tspan x="10" y="746">    └─┬ yargs@3.10.0 </tspan>
<tspan x="10" y="762">      ├── camelcase@1.2.1 </tspan>
<tspan x="10" y="778">      ├─┬ cliui@2.1.0 </tspan>
<tspan x="10" y="794">      │ ├─┬ center-align@0.1.3 </tspan>
<tspan x="10" y="810">      │ │ ├─┬ align-text@0.1.4 </tspan>
<tspan x="10" y="826">      │ │ │ ├─┬ kind-of@3.1.0 </tspan>
<tspan x="10" y="842">      │ │ │ │ └── is-buffer@1.1.5 </tspan>
<tspan x="10" y="858">      │ │ │ ├── longest@1.0.1 </tspan>
<tspan x="10" y="874">      │ │ │ └── repeat-string@1.6.1 </tspan>
<tspan x="10" y="890">      │ │ └── lazy-cache@1.0.4 </tspan>
<tspan x="10" y="906">      │ ├── right-align@0.1.3 </tspan>
<tspan x="10" y="922">      │ └── wordwrap@0.0.2 </tspan>
<tspan x="10" y="938">      ├── decamelize@1.2.0 </tspan>
<tspan x="10" y="954">      └── window-size@0.1.0</tspan>
</text>
</svg>
